<svg xmlns="http://www.w3.org/2000/svg" version="1.1" viewBox="0 0 16 16">
<!-- Based on FB-fLogo-printpackaging.eps from https://www.facebookbrand.com/ -->
<path fill="#3b579d" d="m 2521.63,2668.94 c 81.35,0 147.3,-65.95 147.3,-147.3 l 0,-2374.34 C 2668.93,65.93 2602.98,0 2521.63,0 L 147.31,0 C 65.93,0 0,65.93 0,147.3 l 0,2374.34 c 0,81.35 65.93,147.3 147.31,147.3 l 2374.32,0"/>
<path fill="#ffffff" d="m 1841.52,2668.94 0,-1033.55 346.92,0 51.94,-402.8 -398.86,0 0,-257.17 c 0,-116.62 32.38,-196.09 199.62,-196.09 l 213.3,-0.1 0,-360.26 c -36.91,-4.9 -163.51,-15.87 -310.81,-15.87 -307.53,0 -518.07,187.71 -518.07,532.44 l 0,297.05 -347.81,0 0,402.8 347.81,0 0,1033.55 415.96,0"/>
</svg>